# xmcd CD database file
#
# Track frame offsets:
#	150
#	6264
#	17033
#	27559
#	44892
#	67417
#	84590
#	100359
#	117597
#	134578
#	150239
#	169252
#	188978
#	199527
#	210076
#	224994
#
# Disc length: 3246 seconds
#
# Revision: 0
# Processed by: cddbd v1.5.2PL0 Copyright (c) Steve Scherf et al.
# Submitted via: CDex 1.51
#
DISCID=f40cac10
DTITLE=Sexteto Cienfueguero - Palacio de Valle
DYEAR=2012
DGENRE=Salsa
TTITLE0=La Negra Tomasa
TTITLE1=Bailen Cha, Cha, Cha
TTITLE2=Alli
TTITLE3=Pachito el Che
TTITLE4=A mi manera
TTITLE5=El mas cumbanchero
TTITLE6=El Chan, Chan
TTITLE7=Hasta siempre Comandante
TTITLE8=La calculadora
TTITLE9=Luna Cienfueguera
TTITLE10=El arriero viene y va
TTITLE11=El cuarto de Tula
TTITLE12=Oye como va
TTITLE13=El paralitico
TTITLE14=La Guantanamera
TTITLE15=El baile suavito
EXTD=YEAR: 2012
EXTT0=
EXTT1=
EXTT2=
EXTT3=
EXTT4=
EXTT5=
EXTT6=
EXTT7=
EXTT8=
EXTT9=
EXTT10=
EXTT11=
EXTT12=
EXTT13=
EXTT14=
EXTT15=
PLAYORDER=
